<svg width="512" height="512" viewBox="0 0 512 512" fill="none" xmlns="http://www.w3.org/2000/svg">
<path d="M177.889 226.281C177.889 226.906 177.575 231.286 176.948 239.42H49.2568C51.5575 249.848 56.9957 258.086 65.5711 264.134C74.1466 270.182 84.8137 273.206 97.5724 273.206C106.357 273.206 114.096 271.955 120.789 269.452C127.691 266.741 134.07 262.57 139.927 256.938L165.967 285.094C150.071 303.238 126.855 312.31 96.3174 312.31C77.284 312.31 60.4468 308.66 45.8057 301.361C31.1646 293.853 19.87 283.529 11.922 270.39C3.97401 257.251 0 242.34 0 225.655C0 209.179 3.86943 194.372 11.6083 181.233C19.5563 167.885 30.328 157.561 43.9233 150.262C57.7277 142.754 73.1008 139 90.0427 139C106.566 139 121.521 142.545 134.907 149.636C148.293 156.727 158.751 166.947 166.281 180.294C174.02 193.433 177.889 208.762 177.889 226.281ZM90.3564 175.914C79.271 175.914 69.9635 179.043 62.4338 185.299C54.9041 191.556 50.3026 200.107 48.6293 210.952H131.77C130.096 200.316 125.495 191.869 117.965 185.612C110.436 179.147 101.233 175.914 90.3564 175.914Z" fill="#D4D4D4"/>
<path d="M213.297 312.31C204.722 312.31 197.506 309.39 191.65 303.551C185.793 297.711 182.865 290.412 182.865 281.652C182.865 272.684 185.793 265.489 191.65 260.067C197.506 254.436 204.722 251.62 213.297 251.62C221.873 251.62 229.089 254.436 234.945 260.067C240.802 265.489 243.73 272.684 243.73 281.652C243.73 290.412 240.802 297.711 234.945 303.551C229.089 309.39 221.873 312.31 213.297 312.31Z" fill="#D4D4D4"/>
<path d="M433.191 141.503V281.652C433.191 312.519 425.138 335.46 409.033 350.476C392.928 365.492 369.397 373 338.442 373C322.128 373 306.65 371.019 292.009 367.056C277.368 363.094 265.236 357.358 255.615 349.85L275.067 314.813C282.178 320.652 291.172 325.241 302.048 328.578C312.925 332.123 323.801 333.896 334.677 333.896C351.619 333.896 364.064 330.037 372.012 322.321C380.169 314.813 384.248 303.342 384.248 287.909V280.714C371.489 294.687 353.71 301.674 330.912 301.674C315.434 301.674 301.212 298.337 288.244 291.663C275.485 284.781 265.341 275.187 257.811 262.882C250.282 250.578 246.517 236.396 246.517 220.337C246.517 204.278 250.282 190.096 257.811 177.791C265.341 165.487 275.485 155.997 288.244 149.324C301.212 142.441 315.434 139 330.912 139C355.384 139 373.999 147.029 386.757 163.088V141.503H433.191ZM340.638 261.631C353.606 261.631 364.168 257.877 372.326 250.369C380.692 242.652 384.875 232.642 384.875 220.337C384.875 208.032 380.692 198.126 372.326 190.618C364.168 182.901 353.606 179.043 340.638 179.043C327.67 179.043 317.003 182.901 308.637 190.618C300.271 198.126 296.087 208.032 296.087 220.337C296.087 232.642 300.271 242.652 308.637 250.369C317.003 257.877 327.67 261.631 340.638 261.631Z" fill="#D4D4D4"/>
<path d="M481.567 312.31C472.992 312.31 465.776 309.39 459.92 303.551C454.063 297.711 451.135 290.412 451.135 281.652C451.135 272.684 454.063 265.489 459.92 260.067C465.776 254.436 472.992 251.62 481.567 251.62C490.143 251.62 497.359 254.436 503.215 260.067C509.072 265.489 512 272.684 512 281.652C512 290.412 509.072 297.711 503.215 303.551C497.359 309.39 490.143 312.31 481.567 312.31Z" fill="#D4D4D4"/>
</svg>
