<svg width="256" height="256" viewBox="0 0 256 256" fill="none" xmlns="http://www.w3.org/2000/svg">
<g clip-path="url(#clip0)">
<path d="M88.9446 130.64C88.9446 130.953 88.7877 133.143 88.474 137.21H24.6284C25.7788 142.424 28.4978 146.543 32.7856 149.567C37.0733 152.591 42.4069 154.103 48.7862 154.103C53.1785 154.103 57.0479 153.477 60.3945 152.226C63.8456 150.87 67.0353 148.785 69.9635 145.969L82.9836 160.047C75.0356 169.119 63.4273 173.655 48.1587 173.655C38.642 173.655 30.2234 171.83 22.9028 168.18C15.5823 164.426 9.93502 159.265 5.96101 152.695C1.987 146.126 0 138.67 0 130.328C0 122.09 1.93472 114.686 5.80414 108.116C9.77815 101.443 15.164 96.2807 21.9616 92.631C28.8639 88.877 36.5504 87 45.0213 87C53.2831 87 60.7605 88.7727 67.4536 92.3182C74.1466 95.8636 79.3756 100.973 83.1404 107.647C87.0099 114.217 88.9446 121.881 88.9446 130.64ZM45.1782 105.457C39.6355 105.457 34.9817 107.021 31.2169 110.15C27.452 113.278 25.1513 117.553 24.3147 122.976H65.8849C65.0483 117.658 62.7475 113.434 58.9827 110.306C55.2178 107.074 50.6163 105.457 45.1782 105.457Z" fill="#D4D4D4"/>
<path d="M106.649 173.655C102.361 173.655 98.753 172.195 95.8248 169.275C92.8965 166.356 91.4324 162.706 91.4324 158.326C91.4324 153.842 92.8965 150.245 95.8248 147.533C98.753 144.718 102.361 143.31 106.649 143.31C110.936 143.31 114.544 144.718 117.473 147.533C120.401 150.245 121.865 153.842 121.865 158.326C121.865 162.706 120.401 166.356 117.473 169.275C114.544 172.195 110.936 173.655 106.649 173.655Z" fill="#D4D4D4"/>
<path d="M216.595 88.2513V158.326C216.595 173.759 212.569 185.23 204.516 192.738C196.464 200.246 184.699 204 169.221 204C161.064 204 153.325 203.009 146.004 201.028C138.684 199.047 132.618 196.179 127.808 192.425L137.533 174.906C141.089 177.826 145.586 180.12 151.024 181.789C156.462 183.562 161.9 184.448 167.339 184.448C175.809 184.448 182.032 182.519 186.006 178.66C190.084 174.906 192.124 169.171 192.124 161.455V157.857C185.744 164.844 176.855 168.337 165.456 168.337C157.717 168.337 150.606 166.668 144.122 163.332C137.743 159.89 132.671 155.094 128.906 148.941C125.141 142.789 123.258 135.698 123.258 127.668C123.258 119.639 125.141 112.548 128.906 106.396C132.671 100.243 137.743 95.4987 144.122 92.1618C150.606 88.7206 157.717 87 165.456 87C177.692 87 186.999 91.0147 193.379 99.0441V88.2513H216.595ZM170.319 148.316C176.803 148.316 182.084 146.439 186.163 142.684C190.346 138.826 192.438 133.821 192.438 127.668C192.438 121.516 190.346 116.563 186.163 112.809C182.084 108.951 176.803 107.021 170.319 107.021C163.835 107.021 158.502 108.951 154.318 112.809C150.135 116.563 148.044 121.516 148.044 127.668C148.044 133.821 150.135 138.826 154.318 142.684C158.502 146.439 163.835 148.316 170.319 148.316Z" fill="#D4D4D4"/>
<path d="M240.784 173.655C236.496 173.655 232.888 172.195 229.96 169.275C227.032 166.356 225.567 162.706 225.567 158.326C225.567 153.842 227.032 150.245 229.96 147.533C232.888 144.718 236.496 143.31 240.784 143.31C245.071 143.31 248.679 144.718 251.608 147.533C254.536 150.245 256 153.842 256 158.326C256 162.706 254.536 166.356 251.608 169.275C248.679 172.195 245.071 173.655 240.784 173.655Z" fill="#D4D4D4"/>
</g>
<defs>
<clipPath id="clip0">
<rect width="256" height="256" fill="white"/>
</clipPath>
</defs>
</svg>
